<svg width="100" height="100" viewBox="0 0 24 24" xmlns="http://www.w3.org/2000/svg">
    <circle cx="12" cy="12" r="10" stroke="black" stroke-width="2" fill="none"/>
    <path d="M12 21.35c-.76 0-1.44-.29-1.96-.77a6.49 6.49 0 01-1.54-4.33c0-1.25.44-2.5 1.32-3.55.34-.41.76-.77 1.24-1.07-.52-.66-.83-1.48-.83-2.37 0-1.93 1.57-3.5 3.5-3.5s3.5 1.57 3.5 3.5c0 .89-.31 1.71-.83 2.37.48.3.9.66 1.24 1.07.88 1.05 1.32 2.3 1.32 3.55 0 1.5-.57 3-1.54 4.33-.52.48-1.2.77-1.96.77-1.93 0-3.5-1.57-3.5-3.5 0 1.93-1.57 3.5-3.5 3.5z" fill="grey"/>
    <line x1="5" y1="19" x2="19" y2="5" stroke="red" stroke-width="2"/>
</svg>
